<svg width="25" height="25" viewBox="0 0 25 25" fill="none" xmlns="http://www.w3.org/2000/svg">
<g clip-path="url(#clip0_702_59)">
<path d="M19.9585 10.5544H20.9683C21.2361 10.5544 21.4929 10.6608 21.6822 10.8501C21.8716 11.0395 21.978 11.2963 21.978 11.5641V21.6614C21.978 21.9292 21.8716 22.186 21.6822 22.3753C21.4929 22.5647 21.2361 22.6711 20.9683 22.6711H4.81264C4.54485 22.6711 4.28802 22.5647 4.09866 22.3753C3.9093 22.186 3.80292 21.9292 3.80292 21.6614L3.80292 11.5641C3.80292 11.2963 3.9093 11.0395 4.09866 10.8501C4.28802 10.6608 4.54485 10.5544 4.81264 10.5544H5.82237V9.54465C5.82237 8.61645 6.00519 7.69735 6.3604 6.83981C6.7156 5.98227 7.23623 5.20309 7.89256 4.54676C8.5489 3.89042 9.32808 3.36979 10.1856 3.01459C11.0432 2.65938 11.9623 2.47656 12.8905 2.47656C13.8186 2.47656 14.7378 2.65938 15.5953 3.01459C16.4528 3.36979 17.232 3.89042 17.8883 4.54676C18.5447 5.20309 19.0653 5.98227 19.4205 6.83981C19.7757 7.69735 19.9585 8.61645 19.9585 9.54465V10.5544ZM5.82237 12.5738L5.82237 20.6516H19.9585V12.5738L5.82237 12.5738ZM11.8807 14.5933H13.9002L13.9002 18.6322H11.8807L11.8807 14.5933ZM17.9391 10.5544V9.54465C17.9391 8.20567 17.4072 6.92153 16.4604 5.97473C15.5136 5.02792 14.2294 4.49602 12.8905 4.49602C11.5515 4.49602 10.2673 5.02792 9.32053 5.97473C8.37373 6.92153 7.84182 8.20567 7.84182 9.54465L7.84182 10.5544H17.9391Z" fill="white"/>
</g>
<defs>
<clipPath id="clip0_702_59">
<rect width="24.2334" height="24.2334" fill="white" transform="translate(0.773865 0.457153)"/>
</clipPath>
</defs>
</svg>
